<?xml version="1.0" encoding="UTF-8"?>
<!DOCTYPE svg PUBLIC "-//W3C//DTD SVG 1.1//EN" "http://www.w3.org/Graphics/SVG/1.1/DTD/svg11.dtd">
<svg xmlns="http://www.w3.org/2000/svg" xmlns:xlink="http://www.w3.org/1999/xlink" version="1.1" width="78px" height="78px" viewBox="-0.5 -0.5 78 78" style="background-color: rgb(255, 255, 255);"><defs/><g><rect x="0" y="0" width="78" height="78" fill="none" stroke="none" pointer-events="all"/><path d="M 30.23 41.76 C 28.51 42.15 26.61 42.38 24.58 42.47 L 24.58 54.8 L 21.07 54.8 L 21.07 42.45 C 14.46 42.16 9.31 40.26 5.78 36.73 C 1.73 32.68 0 28.63 0 23.2 L 0 3.89 L 3.51 3.89 L 3.51 23.2 C 3.51 27.73 4.84 30.83 8.26 34.25 C 11.12 37.11 15.44 38.68 21.07 38.94 L 21.07 3.89 L 24.58 3.89 L 24.58 38.96 C 26.34 38.88 27.98 38.67 29.46 38.33 Z M 44.07 30.96 L 40.88 29.48 C 41.74 27.64 42.14 25.65 42.14 23.2 L 42.14 3.89 L 45.65 3.89 L 45.65 23.2 C 45.65 26.14 45.13 28.67 44.07 30.96 Z M 65.48 48.39 C 65.97 48.78 66.44 49.17 66.89 49.56 C 66.44 49.96 65.97 50.35 65.48 50.73 C 65.49 50.34 65.5 49.95 65.5 49.56 C 65.5 49.17 65.49 48.78 65.48 48.39 Z M 61.09 59.58 C 60.53 59.39 59.97 59.18 59.39 58.95 C 59.73 58.77 60.07 58.59 60.4 58.4 C 60.74 58.2 61.07 58 61.39 57.8 C 61.3 58.41 61.2 59.01 61.09 59.58 Z M 55.3 70.6 C 53.73 70.6 51.74 67.84 50.34 63.03 C 51.96 62.48 53.62 61.8 55.3 61.03 C 56.99 61.8 58.65 62.47 60.27 63.02 C 58.87 67.84 56.88 70.6 55.3 70.6 Z M 49.22 57.8 C 49.54 58 49.87 58.2 50.21 58.4 C 50.55 58.59 50.89 58.77 51.23 58.96 C 50.66 59.19 50.09 59.4 49.52 59.6 C 49.41 59.02 49.31 58.42 49.22 57.8 Z M 43.72 49.56 C 44.17 49.17 44.64 48.78 45.13 48.39 C 45.12 48.78 45.11 49.17 45.11 49.56 C 45.11 49.95 45.12 50.34 45.13 50.73 C 44.64 50.35 44.17 49.96 43.72 49.56 Z M 37.09 39.05 C 37.64 38.09 39.76 37.34 44.03 38.07 C 44.72 38.18 45.43 38.34 46.15 38.52 C 45.82 40.22 45.57 42.01 45.39 43.82 C 43.87 44.9 42.44 46.01 41.15 47.14 C 40.64 46.61 40.15 46.08 39.71 45.55 C 36.94 42.21 36.54 40 37.09 39.05 Z M 51.23 40.17 C 50.89 40.36 50.54 40.54 50.21 40.73 C 49.87 40.93 49.54 41.13 49.22 41.33 C 49.31 40.71 49.41 40.11 49.52 39.53 C 50.09 39.73 50.65 39.94 51.23 40.17 Z M 61.99 49.56 C 61.99 50.88 61.94 52.14 61.86 53.35 C 60.83 54.04 59.76 54.71 58.65 55.35 C 57.54 56 56.42 56.58 55.31 57.14 C 54.19 56.58 53.07 56 51.96 55.35 C 50.85 54.71 49.78 54.04 48.75 53.35 C 48.67 52.14 48.62 50.88 48.62 49.56 C 48.62 48.25 48.67 46.99 48.75 45.78 C 49.78 45.09 50.85 44.42 51.96 43.77 C 53.08 43.13 54.19 42.54 55.3 41.99 C 56.42 42.54 57.53 43.13 58.65 43.77 C 59.76 44.42 60.83 45.09 61.86 45.77 C 61.94 47.02 61.99 48.28 61.99 49.56 Z M 61.09 39.53 C 61.2 40.12 61.3 40.72 61.39 41.33 C 61.06 41.13 60.74 40.93 60.4 40.73 C 60.06 40.54 59.72 40.36 59.38 40.17 C 59.96 39.94 60.52 39.73 61.09 39.53 Z M 66.57 38.07 C 70.86 37.34 72.98 38.09 73.52 39.05 C 74.07 40 73.67 42.21 70.9 45.55 C 70.46 46.08 69.97 46.61 69.46 47.14 C 68.17 46.01 66.75 44.91 65.23 43.84 C 65.06 41.98 64.81 40.2 64.48 38.52 C 65.19 38.34 65.9 38.18 66.57 38.07 Z M 72 49.56 C 72.57 48.97 73.11 48.38 73.6 47.8 C 78 42.49 77.64 39.15 76.57 37.29 C 75.49 35.43 72.78 33.45 65.98 34.61 C 65.23 34.73 64.45 34.91 63.65 35.11 C 63.33 34.02 62.99 32.97 62.6 32.02 L 59.35 33.34 C 59.69 34.18 60 35.12 60.28 36.09 C 58.66 36.65 56.99 37.33 55.3 38.1 C 53.62 37.33 51.96 36.65 50.34 36.1 C 51.74 31.29 53.73 28.53 55.3 28.53 C 56.15 28.53 56.96 29.31 57.48 29.98 L 60.23 27.79 C 58.4 25.5 56.54 25.01 55.3 25.01 C 51.48 25.01 48.67 29.25 46.98 35.11 C 46.18 34.91 45.39 34.74 44.63 34.61 C 37.84 33.45 35.12 35.43 34.04 37.29 C 32.97 39.15 32.61 42.49 37.01 47.8 C 37.5 48.38 38.04 48.97 38.61 49.56 C 38.07 50.13 37.54 50.69 37.07 51.26 L 39.77 53.51 C 40.19 53 40.66 52.49 41.15 51.99 C 42.44 53.12 43.87 54.23 45.39 55.31 C 45.57 57.12 45.82 58.91 46.15 60.61 C 45.43 60.78 44.72 60.95 44.03 61.06 C 39.76 61.79 37.64 61.04 37.09 60.08 C 36.57 59.18 37.11 57.73 37.48 56.95 L 34.3 55.45 C 32.84 58.56 33.35 60.64 34.04 61.84 C 34.9 63.32 36.78 64.87 40.91 64.87 C 41.99 64.87 43.22 64.76 44.63 64.52 C 45.39 64.39 46.18 64.22 46.99 64.02 C 48.67 69.88 51.48 74.11 55.3 74.11 C 59.13 74.11 61.94 69.88 63.62 64.02 C 64.75 64.29 65.84 64.52 66.89 64.66 L 67.36 61.18 C 66.44 61.06 65.46 60.85 64.46 60.6 C 64.8 58.9 65.04 57.12 65.22 55.31 C 66.74 54.23 68.17 53.12 69.46 51.99 C 69.97 52.52 70.46 53.05 70.9 53.57 C 73.67 56.92 74.07 59.13 73.52 60.08 C 73.09 60.83 71.97 61.14 71.1 61.26 L 71.59 64.73 C 74.56 64.32 75.93 62.93 76.57 61.84 C 77.64 59.97 78 56.64 73.6 51.33 C 73.11 50.74 72.57 50.15 72 49.56 Z" fill="#999999" stroke="none" pointer-events="all"/></g></svg>